REM DIRINDEX 1\2,1\3,1\4,1\5
REM DIRNAME folder01,folder02,folder03,folder04,folder05
TITLE ""
FILE "1800_111.mp3" MP3
  TRACK 01 AUDIO
    TITLE "2:cjc044_3149"
    INDEX 01 00:00:00
  TRACK 02 AUDIO
    TITLE "0:"
    INDEX 01 00:01:07
  TRACK 03 AUDIO
    TITLE "3:cjc044_3150"
    INDEX 01 00:01:64
  TRACK 04 AUDIO
    TITLE "0:"
    INDEX 01 00:02:73
  TRACK 05 AUDIO
    TITLE "4:cjc044_3151"
    INDEX 01 00:03:57
  TRACK 06 AUDIO
    TITLE "0:"
    INDEX 01 00:04:70
  TRACK 07 AUDIO
    TITLE "5:cjc044_3152"
    INDEX 01 00:05:54
  TRACK 08 AUDIO
    TITLE "0:"
    INDEX 01 00:09:14
  TRACK 09 AUDIO
    TITLE "2:cjc044_3153"
    INDEX 01 00:10:74
  TRACK 10 AUDIO
    TITLE "0:"
    INDEX 01 00:12:11
  TRACK 11 AUDIO
    TITLE "3:cjc044_3154"
    INDEX 01 00:12:69
  TRACK 12 AUDIO
    TITLE "0:"
    INDEX 01 00:13:67
  TRACK 13 AUDIO
    TITLE "4:cjc044_3155"
    INDEX 01 00:14:53
  TRACK 14 AUDIO
    TITLE "0:"
    INDEX 01 00:15:64
  TRACK 15 AUDIO
    TITLE "5:cjc044_3156"
    INDEX 01 00:16:44
  TRACK 16 AUDIO
    TITLE "0:"
    INDEX 01 00:19:40
  TRACK 17 AUDIO
    TITLE "2:cjc044_3157"
    INDEX 01 00:21:27
  TRACK 18 AUDIO
    TITLE "0:"
    INDEX 01 00:22:32
  TRACK 19 AUDIO
    TITLE "3:cjc044_3158"
    INDEX 01 00:23:18
  TRACK 20 AUDIO
    TITLE "0:"
    INDEX 01 00:24:10
  TRACK 21 AUDIO
    TITLE "4:cjc044_3159"
    INDEX 01 00:24:74
  TRACK 22 AUDIO
    TITLE "0:"
    INDEX 01 00:26:05
  TRACK 23 AUDIO
    TITLE "5:cjc044_3160"
    INDEX 01 00:26:46
  TRACK 24 AUDIO
    TITLE "0:"
    INDEX 01 00:29:74
  TRACK 25 AUDIO
    TITLE "2:cjc044_3161"
    INDEX 01 00:31:59
  TRACK 26 AUDIO
    TITLE "0:"
    INDEX 01 00:32:74
  TRACK 27 AUDIO
    TITLE "3:cjc044_3162"
    INDEX 01 00:33:56
  TRACK 28 AUDIO
    TITLE "0:"
    INDEX 01 00:34:61
  TRACK 29 AUDIO
    TITLE "4:cjc044_3163"
    INDEX 01 00:35:41
  TRACK 30 AUDIO
    TITLE "0:"
    INDEX 01 00:36:56
  TRACK 31 AUDIO
    TITLE "5:cjc044_3164"
    INDEX 01 00:37:30
  TRACK 32 AUDIO
    TITLE "0:"
    INDEX 01 00:40:68
  TRACK 33 AUDIO
    TITLE "2:cjc044_3165"
    INDEX 01 00:42:45
  TRACK 34 AUDIO
    TITLE "0:"
    INDEX 01 00:43:64
  TRACK 35 AUDIO
    TITLE "3:cjc044_3166"
    INDEX 01 00:44:46
  TRACK 36 AUDIO
    TITLE "0:"
    INDEX 01 00:45:73
  TRACK 37 AUDIO
    TITLE "4:cjc044_3167"
    INDEX 01 00:46:53
  TRACK 38 AUDIO
    TITLE "0:"
    INDEX 01 00:47:74
  TRACK 39 AUDIO
    TITLE "5:cjc044_3168"
    INDEX 01 00:48:53
  TRACK 40 AUDIO
    TITLE "0:"
    INDEX 01 00:51:62
  TRACK 41 AUDIO
    TITLE "2:cjc044_3169"
    INDEX 01 00:53:53
  TRACK 42 AUDIO
    TITLE "0:"
    INDEX 01 00:55:08
  TRACK 43 AUDIO
    TITLE "3:cjc044_3170"
    INDEX 01 00:55:67
  TRACK 44 AUDIO
    TITLE "0:"
    INDEX 01 00:57:13
  TRACK 45 AUDIO
    TITLE "4:cjc044_3171"
    INDEX 01 00:57:74
  TRACK 46 AUDIO
    TITLE "0:"
    INDEX 01 00:59:32
  TRACK 47 AUDIO
    TITLE "5:cjc044_3172"
    INDEX 01 01:00:04
  TRACK 48 AUDIO
    TITLE "0:"
    INDEX 01 01:03:55
  TRACK 49 AUDIO
    TITLE "2:cjc044_3173"
    INDEX 01 01:05:40
  TRACK 50 AUDIO
    TITLE "0:"
    INDEX 01 01:06:47
  TRACK 51 AUDIO
    TITLE "3:cjc044_3174"
    INDEX 01 01:07:29
  TRACK 52 AUDIO
    TITLE "0:"
    INDEX 01 01:09:05
  TRACK 53 AUDIO
    TITLE "4:cjc044_3175"
    INDEX 01 01:09:63
  TRACK 54 AUDIO
    TITLE "0:"
    INDEX 01 01:10:67
  TRACK 55 AUDIO
    TITLE "5:cjc044_3176"
    INDEX 01 01:11:45
  TRACK 56 AUDIO
    TITLE "0:"
    INDEX 01 01:14:08
  TRACK 57 AUDIO
    TITLE "2:cjc044_3177"
    INDEX 01 01:15:62
  TRACK 58 AUDIO
    TITLE "0:"
    INDEX 01 01:17:04
  TRACK 59 AUDIO
    TITLE "3:cjc044_3178"
    INDEX 01 01:17:61
  TRACK 60 AUDIO
    TITLE "0:"
    INDEX 01 01:18:56
  TRACK 61 AUDIO
    TITLE "4:cjc044_3179"
    INDEX 01 01:19:44
  TRACK 62 AUDIO
    TITLE "0:"
    INDEX 01 01:20:61
  TRACK 63 AUDIO
    TITLE "5:cjc044_3180"
    INDEX 01 01:21:37
  TRACK 64 AUDIO
    TITLE "0:"
    INDEX 01 01:24:73
  TRACK 65 AUDIO
    TITLE "2:cjc044_3181"
    INDEX 01 01:26:60
  TRACK 66 AUDIO
    TITLE "0:"
    INDEX 01 01:28:16
  TRACK 67 AUDIO
    TITLE "3:cjc044_3182"
    INDEX 01 01:29:01
  TRACK 68 AUDIO
    TITLE "0:"
    INDEX 01 01:30:52
  TRACK 69 AUDIO
    TITLE "4:cjc044_3183"
    INDEX 01 01:31:34
  TRACK 70 AUDIO
    TITLE "0:"
    INDEX 01 01:32:70
  TRACK 71 AUDIO
    TITLE "5:cjc044_3184"
    INDEX 01 01:33:48
  TRACK 72 AUDIO
    TITLE "0:"
    INDEX 01 01:36:70
  TRACK 73 AUDIO
    TITLE "2:cjc044_3185"
    INDEX 01 01:38:47
  TRACK 74 AUDIO
    TITLE "0:"
    INDEX 01 01:39:68
  TRACK 75 AUDIO
    TITLE "3:cjc044_3186"
    INDEX 01 01:40:48
  TRACK 76 AUDIO
    TITLE "0:"
    INDEX 01 01:42:43
  TRACK 77 AUDIO
    TITLE "4:cjc044_3187"
    INDEX 01 01:43:27
  TRACK 78 AUDIO
    TITLE "0:"
    INDEX 01 01:44:46
  TRACK 79 AUDIO
    TITLE "5:cjc044_3188"
    INDEX 01 01:45:26
  TRACK 80 AUDIO
    TITLE "0:"
    INDEX 01 01:48:60
